<?xml version="1.0" encoding="UTF-8"?>
<svg id="Layer_2" data-name="Layer 2" xmlns="http://www.w3.org/2000/svg" viewBox="0 0 211.15 383.74">
  <g id="Layer_1-2" data-name="Layer 1">
    <g>
      <path d="M41.05,0c8.47,1.52,16.37,5.24,22.74,12.58,3.71-6.54,9.4-10.66,16.26-12.58h8.25c9.45,2.15,16.92,9.35,18.79,19.77,6.8-3.93,14.27-4.55,21.76-1.08,5.62,2.61,10.62,8.09,12.52,15.79,7.34-4.48,15.91-4.74,23.46-.56,6.52,3.61,11.49,10.71,11.64,18.88l.22,12.05c7.92-4.48,16.72-4.13,24.04.59,6.48,4.18,10.45,11.57,10.43,20.06l-.14,50.14c-.03,11.71-3.52,22.32-6.96,33.34-.82,2.63-1.86,4.81-4.06,5.49-2.61.81-4.73-.04-6.11-1.56-1.75-1.93-1.61-4.3-.83-6.75,3.26-10.09,6.63-19.89,6.65-30.63l.13-50.78c.02-7.03-5.82-12.08-12.11-11.8-6.63.3-11.33,5.7-11.27,12.48l.2,20.06c4.47,2.65,8.52,5.12,12.04,8.57,2.36,2.3,1.93,6.06-.34,7.94-2.5,2.07-5.32,1.65-7.99-.41-21.08-16.24-53.35-26.74-79.64-32.82-19.76-4.57-39.26-7.08-59.34-8.96-3.3-.31-5.06-3.41-4.84-5.96.25-2.99,2.68-5.45,5.96-5.13l18.96,1.86.03-33.87c.01-12.11-8.16-22.17-19.38-24.8s-23.32,2.92-28.52,13.83c-1.46,3.07-4.78,4.14-7.58,2.84s-3.98-4.63-2.54-7.7C8.83,9.51,19.26,2.21,31.3,0h9.75ZM96.07,76.11l-.03-54.3c-1.18-6.46-6.35-10.99-12.56-10.52-5.55.42-10.69,5.06-10.69,11.29l-.07,49.55,23.35,3.98ZM130.62,85v-46.7c-1.07-6.54-6.34-11.05-12.63-10.56-5.62.44-10.6,5.16-10.62,11.44l-.08,39.62,23.33,6.19ZM165.22,99.01l.04-45.58c-.38-6.63-5.91-11.42-11.99-11.19-6.52.24-11.38,5.36-11.37,12.07v34.79c8.07,3.03,15.65,6.41,23.33,9.91Z"/>
      <path d="M112.89,383.74l-13.44-.04c-13.35-1.52-25.58-6.71-35.81-15.5-2.57-2.21-3.21-5.42-1.16-8.15,1.6-2.13,5.35-3.06,7.98-.79,16.42,14.2,39.42,17.75,59.46,8,17.9-8.71,30.21-27.41,30.22-48.52v-31.48c.02-9.1,1.26-17.57,3.94-26.31l21.26-69.36c1.03-3.37,4.36-4.57,7.23-3.63,2.63.86,4.48,3.79,3.51,6.94l-21.22,69.34c-2.34,7.66-3.43,15.05-3.44,23.02l-.02,30.74c-.02,34.06-25.19,62.08-58.51,65.75Z"/>
      <path d="M56.67,340.31c1.41,3.36-.67,6.63-3.35,7.49-3.27,1.04-5.99-.69-7.37-4.01-4.26-10.19-5.34-20.56-4.99-31.87,1.15-37.15-5.02-73.44-19.79-107.59C7.42,172.57.05,138.99.03,104.3L0,49.56c0-3.35,2.72-5.63,5.44-5.64,3.11-.02,5.77,2.13,5.77,5.57l.07,54.82c.04,32.35,6.6,63.86,19.45,93.55,15.68,36.23,22.82,74.57,21.45,114.07-.35,9.96.55,19.02,4.48,28.38Z"/>
      <path d="M49.02,154.11c-4.05.12-6.25-2.18-6.52-5.24s2.03-5.94,5.57-5.99c18.06-.24,32.4-14.55,32.49-32.65.02-3.37,2.91-5.53,5.81-5.38s5.42,2.2,5.4,5.57c-.12,23.58-18.71,42.97-42.75,43.69Z"/>
    </g>
  </g>
</svg>