<?xml version="1.0" encoding="UTF-8"?>
<svg id="Layer_2" data-name="Layer 2" xmlns="http://www.w3.org/2000/svg" viewBox="0 0 384 383.22">
  <g id="Layer_1-2" data-name="Layer 1">
    <g>
      <path d="M383.82,208.84l.18,8.21c-1.26,5.8-3.87,10.5-8.27,15.14l-106.37,112.14c-22.68,23.9-45.46,35.06-77.36,38.9h-38.25c-.47-1.3-1.86-.51-3.04-.63-23.49-2.52-44.94-12.64-61.74-28.95-2.59-2.51-2.5-6.01-.5-8.31,2.34-2.69,6.26-2.74,8.95-.15,17.39,16.75,40.25,26.06,64.52,26.05h21.88c27.79-.02,54.12-11.48,73.28-31.64l110.82-116.66c4.21-4.43,4.95-10.74,2.8-15.98-7.42-18.05-42.49-6.96-55.46,8.11l-33.62,39.08c-4.48,5.21-12.24,5.49-18.74,2.83-4.86-1.99-10.73-7.55-10.68-14.54l.23-34.95,38.99-146.97c3.02-11.4-3.81-22.26-14.5-25.31s-22.53,2.77-25.82,14.18l-41.65,144.57c-.87,3.01-4.05,3.83-6.48,3.5-2.29-.32-4.95-2.04-4.96-5.26l-.14-159.97c0-11.62-9.76-19.85-20.62-20.19-10.42-.33-21.1,7.94-21.12,19.48l-.26,156.2c0,3.05-2.87,4.75-5.01,5.1-2.57.41-5.74-.79-6.57-3.87L108.62,56.3c-3.13-11.62-15.55-17.46-26.13-14.16-11.86,3.7-17.08,15.22-13.88,27.12l36.04,133.88c.85,3.17-1.49,5.69-3.61,6.58-3.07,1.29-5.99.17-7.72-2.83l-47.68-82.47c-5.3-9.17-16.57-11.37-25.12-6.27-9.09,5.42-10.69,16.36-5.42,25.49l34.78,60.25c13.11,22.72,18.92,48.31,19.14,74.45.08,9.25,1.23,17.61,3.76,26.35,1,3.45-1.08,6.74-4.15,7.5s-6.35-.86-7.38-4.3c-2.97-9.95-4.16-19.72-4.26-30.26-.22-24.28-5.94-47.71-18.05-68.78L2.62,145.68l-2.62-7.98.29-9.02c2.3-12.86,12.11-22.57,24.23-24.74,13.33-2.39,25.4,3.96,32.12,15.41l23.75,40.45-23.51-87.89c-4.92-18.4,5.15-36.88,23.38-41.6,17.97-4.65,35.64,6.2,40.53,24.41l23,85.5.23-107.3C144.06,14.54,158.68.24,176.66,0s33.16,13.85,33.21,32.18l.33,115.55,29.42-101.74c5.02-17.35,22.89-27.05,40.14-22.47,16.02,4.25,28.12,21.26,23.57,38.45l-39.02,147.56-.47,30.69c-.04,2.6,1.89,4.84,3.38,5.62,1.89,1,5.17.93,6.73-.9l32.14-37.62c12.92-15.13,33.17-22.46,53.08-21.47,13.15.65,22.33,11.12,24.65,22.99Z"/>
      <path d="M167.97,340.12c-.04,4.34-3.01,6.52-6.32,6.36s-5.72-2.86-5.69-6.61c.44-47.43,35.66-87.59,82.67-94.22,3.47-.49,6.21,1.12,7.1,4.23.8,2.78-.72,6.94-4.35,7.42-41.55,5.49-73.04,40.48-73.41,82.81Z"/>
      <path d="M82.38,326.12c2.31,3.55,2.25,7.74-1.11,9.8s-7.05.44-9.12-3.04c-1.91-3.22-2.29-6.94.65-9.15,3.28-2.47,7.2-1.25,9.57,2.38Z"/>
    </g>
  </g>
</svg>